<svg xmlns="http://www.w3.org/2000/svg" width="720" height="980" viewBox="0 0 720 980">
<rect width="720" height="980" fill="#fffdf8"/><rect x="26" y="26" width="668" height="928" rx="12" fill="none" stroke="#d8d0c2" stroke-width="2"/>
<text x="60" y="92" font-family="Georgia,serif" font-size="30" fill="#17486b">arXiv:2605.29727</text>
<text x="60" y="154" font-family="Georgia,serif" font-weight="700" font-size="42" fill="#153a57">BASTION</text>
<text x="60" y="205" font-family="Arial,sans-serif" font-size="23" fill="#355b70">Budget-Aware Tree-Structured</text><text x="60" y="238" font-family="Arial,sans-serif" font-size="23" fill="#355b70">Block Diffusion Drafting</text>
<line x1="60" y1="282" x2="660" y2="282" stroke="#ddd3c6"/><text x="60" y="327" font-family="Arial,sans-serif" font-size="18" fill="#6a6e70">Soowon Oh · Nam Cao · Yujin Kim · Hojung Jung</text><text x="60" y="357" font-family="Arial,sans-serif" font-size="18" fill="#6a6e70">Huzama Ahmad · Sangmin Bae · Se-Young Yun</text>
<circle cx="140" cy="505" r="25" fill="#edf4f8" stroke="#91b2c7"/><circle cx="260" cy="450" r="22" fill="#f5eff9" stroke="#b79dcc"/><circle cx="260" cy="560" r="22" fill="#f5eff9" stroke="#b79dcc"/><circle cx="405" cy="410" r="19" fill="#fff4df" stroke="#d7ad61"/><circle cx="405" cy="490" r="19" fill="#fff4df" stroke="#d7ad61"/><circle cx="405" cy="590" r="19" fill="#fff4df" stroke="#d7ad61"/>
<path d="M165 495L237 458M165 515L237 552M282 445L384 414M282 455L384 486M282 555L384 586" stroke="#7a5aa6" stroke-width="5" fill="none"/>
<rect x="470" y="455" width="180" height="100" rx="18" fill="#edf7f3" stroke="#9ac8b5"/><text x="560" y="490" text-anchor="middle" font-family="Arial,sans-serif" font-size="18" font-weight="700" fill="#245b4c">Budget controller</text><text x="560" y="522" text-anchor="middle" font-family="Arial,sans-serif" font-size="16" fill="#4f7569">gain / verify cost</text>
<text x="60" y="760" font-family="Arial,sans-serif" font-size="22" font-weight="700" fill="#244e69">Core idea</text><text x="60" y="802" font-family="Arial,sans-serif" font-size="18" fill="#59676e">Grow a query-dependent DFlash draft tree only while</text><text x="60" y="834" font-family="Arial,sans-serif" font-size="18" fill="#59676e">marginal acceptance gain justifies hardware verification cost.</text><text x="60" y="925" font-family="Arial,sans-serif" font-size="16" fill="#9b9488">DFlash Atlas · paper preview</text></svg>