<svg xmlns="http://www.w3.org/2000/svg" width="1200" height="675" viewBox="0 0 1200 675"><rect width="1200" height="675" fill="#f7f7f5"/><rect x="70" y="70" width="1060" height="535" rx="28" fill="white" stroke="#d7d7d2" stroke-width="3"/><text x="120" y="155" font-family="Arial,sans-serif" font-size="28" font-weight="700" fill="#202124">Block Parallelism for Long-Context</text><text x="120" y="195" font-family="Arial,sans-serif" font-size="28" font-weight="700" fill="#202124">Diffusion Language Model Training</text><text x="120" y="245" font-family="Arial,sans-serif" font-size="20" fill="#5f6368">BP + Context-Sharded Block Parallelism (CSBP)</text><rect x="120" y="300" width="235" height="120" rx="18" fill="#eef2ff" stroke="#b8c4ff"/><text x="170" y="350" font-family="Arial,sans-serif" font-size="22" font-weight="700" fill="#303f9f">clean prefix</text><text x="150" y="385" font-family="Arial,sans-serif" font-size="17" fill="#5f6368">context-sharded</text><path d="M370 360 H470" stroke="#777" stroke-width="4"/><polygon points="470,360 450,350 450,370" fill="#777"/><rect x="490" y="280" width="210" height="75" rx="15" fill="#e8f5e9" stroke="#9ccc9c"/><rect x="490" y="375" width="210" height="75" rx="15" fill="#e8f5e9" stroke="#9ccc9c"/><text x="525" y="325" font-family="Arial,sans-serif" font-size="19" font-weight="700" fill="#256029">target block A</text><text x="525" y="420" font-family="Arial,sans-serif" font-size="19" font-weight="700" fill="#256029">target block B</text><path d="M720 315 H805" stroke="#777" stroke-width="4"/><path d="M720 410 H805" stroke="#777" stroke-width="4"/><rect x="825" y="300" width="245" height="120" rx="18" fill="#fff4e5" stroke="#f3bd70"/><text x="875" y="350" font-family="Arial,sans-serif" font-size="21" font-weight="700" fill="#8a5200">DFlash2 training</text><text x="865" y="385" font-family="Arial,sans-serif" font-size="17" fill="#5f6368">512K: 2.48× · 1M: 7.59×</text><text x="120" y="515" font-family="Arial,sans-serif" font-size="18" fill="#5f6368">arXiv:2609.19242 · 8×H100 DFlash2 experiment</text><text x="120" y="550" font-family="Arial,sans-serif" font-size="17" fill="#5f6368">Training / Systems · long-context distributed block-diffusion</text></svg>